#!OML:ASF H:\LiuWeirdWalks\Patient Classification 1\Patient 1\Session 1\male.ASF
:FULLY-SPECIFIED
:DEGREES
356
root -0.0658706 18.1172 -30.186 5.81574 4.11736 3.95884
lowerback 3.8964 -0.342714 0.531396
upperback -0.844232 -0.23865 6.24229
thorax -3.04142 -0.0667604 6.21858
lowerneck -32.5644 -2.7756 12.7613
upperneck 34.2997 -3.74376 -19.0715
head 17.376 -2.78655 -12.3541
rclavicle -2.18663e-015 3.81667e-014
rhumerus -32.3991 -18.7037 -60.75
rradius 29.4945
rwrist -10.7504
rhand -17.5231 -3.63002
rfingers 7.12502
rthumb 8.7306 -33.4295
lclavicle -2.18663e-015 3.81667e-014
lhumerus -35.7285 -3.76124 88.8562
lradius 35.6491
lwrist 4.93253
lhand -5.55509 -1.8326
lfingers 7.12502
lthumb 20.26 27.1308
rfemur -11.179 0.29057 13.3651
rtibia 28.6024
rfoot -13.5612 -20.5309
rtoes -4.23947
lfemur -5.72307 -2.40728 -21.8503
ltibia 15.408
lfoot -5.40446 17.2827
ltoes -19.9631
357
root -0.065885 18.1172 -30.1849 5.82704 4.15558 3.99407
lowerback 3.87915 -0.354327 0.512236
upperback -0.830049 -0.256697 6.24124
thorax -3.01499 -0.0760029 6.22908
lowerneck -32.5807 -2.81757 12.6863
upperneck 34.311 -3.79328 -19.0019
head 17.3762 -2.80719 -12.3143
rclavicle 3.18055e-015 3.18055e-015
rhumerus -32.3408 -18.671 -60.7961
rradius 29.5298
rwrist -10.8296
rhand -17.5335 -3.65816
rfingers 7.12502
rthumb 8.72054 -33.458
lclavicle 3.18055e-015 3.18055e-015
lhumerus -35.7082 -3.76187 88.8389
lradius 35.6215
lwrist 4.94961
lhand -5.50859 -1.84437
lfingers 7.12502
lthumb 20.3047 27.1142
rfemur -11.1822 0.270055 13.3286
rtibia 28.6179
rfoot -13.5688 -20.5498
rtoes -4.24904
lfemur -5.71774 -2.38471 -21.8856
ltibia 15.3824
lfoot -5.39805 17.2249
ltoes -20.1358
358
root -0.0660182 18.1171 -30.1839 5.83521 4.1981 4.02162
lowerback 3.86904 -0.407627 0.471203
upperback -0.825918 -0.329325 6.2877
thorax -2.9971 -0.111461 6.30676
lowerneck -32.5609 -2.77096 12.6612
upperneck 34.3003 -3.6974 -19.0231
head 17.3935 -2.77304 -12.3036
rclavicle 3.37934e-015 7.95139e-014
rhumerus -32.2237 -18.4981 -60.8435
rradius 29.5444
rwrist -10.8886
rhand -17.5553 -3.68357
rfingers 7.12502
rthumb 8.69951 -33.4843
lclavicle 3.37934e-015 7.95139e-014
lhumerus -35.7273 -3.59438 88.8302
lradius 35.5968
lwrist 4.95061
lhand -5.47629 -1.83538
lfingers 7.12502
lthumb 20.3357 27.1199
rfemur -11.1792 0.255844 13.3026
rtibia 28.6274
rfoot -13.5737 -20.5775
rtoes -4.2561
lfemur -5.71605 -2.36719 -21.9108
ltibia 15.3649
lfoot -5.39442 17.1692
ltoes -20.2111
359
root -0.0662259 18.1171 -30.1829 5.84005 4.24094 4.03746
lowerback 3.87187 -0.479703 0.421953
upperback -0.824736 -0.425995 6.36105
thorax -2.9866 -0.158421 6.41981
lowerneck -32.4902 -2.76254 12.5368
upperneck 34.2636 -3.6127 -19.0066
head 17.3858 -2.75381 -12.2459
rclavicle 4.57205e-015 -1.27222e-014
rhumerus -32.0777 -18.2559 -60.8918
rradius 29.5519
rwrist -10.9271
rhand -17.5902 -3.71257
rfingers 7.12502
rthumb 8.66582 -33.5147
lclavicle 4.57205e-015 -1.27222e-014
lhumerus -35.7677 -3.34891 88.8286
lradius 35.5848
lwrist 4.95166
lhand -5.46243 -1.82268
lfingers 7.12502
lthumb 20.3491 27.1312
rfemur -11.1703 0.249629 13.2908
rtibia 28.6301
rfoot -13.5789 -20.6114
rtoes -4.25667
lfemur -5.71593 -2.35611 -21.9229
ltibia 15.3569
lfoot -5.39395 17.121
ltoes -20.4951
360
root -0.066624 18.1172 -30.1821 5.8415 4.28552 4.04176
lowerback 3.88258 -0.497417 0.424431
upperback -0.823917 -0.448777 6.37247
thorax -2.9893 -0.169712 6.43226
lowerneck -32.4542 -2.8372 12.4233
upperneck 34.2589 -3.68675 -18.9325
head 17.3594 -2.79085 -12.1918
rclavicle 1.41137e-014 -3.49861e-014
rhumerus -32.0495 -18.2331 -60.9179
rradius 29.5684
rwrist -10.9183
rhand -17.6276 -3.72579
rfingers 7.12502
rthumb 8.62972 -33.5294
lclavicle 1.41137e-014 -3.49861e-014
lhumerus -35.7837 -3.3439 88.8117
lradius 35.5714
lwrist 4.98566
lhand -5.46177 -1.81123
lfingers 7.12502
lthumb 20.3497 27.1426
rfemur -11.1556 0.254631 13.294
rtibia 28.6271
rfoot -13.5844 -20.6561
rtoes -4.25024
lfemur -5.71936 -2.35584 -21.9209
ltibia 15.3577
lfoot -5.39723 17.0822
ltoes -20.6089
361
root -0.0670068 18.1173 -30.1814 5.84021 4.32738 4.04093
lowerback 3.89939 -0.537784 0.415822
upperback -0.830375 -0.500939 6.41177
thorax -2.99957 -0.195031 6.48312
lowerneck -32.4018 -2.83979 12.374
upperneck 34.2241 -3.65593 -18.9384
head 17.3387 -2.7877 -12.1695
rclavicle 1.64991e-014 6.36111e-015
rhumerus -31.9887 -18.1265 -60.944
rradius 29.5706
rwrist -10.9019
rhand -17.6526 -3.72088
rfingers 7.12502
rthumb 8.60563 -33.5255
lclavicle 1.64991e-014 6.36111e-015
lhumerus -35.839 -3.2386 88.8003
lradius 35.5754
lwrist 4.99875
lhand -5.47788 -1.81046
lfingers 7.12502
lthumb 20.3342 27.145
rfemur -11.1382 0.262272 13.3028
rtibia 28.6206
rfoot -13.5866 -20.7006
rtoes -4.2436
lfemur -5.72404 -2.3591 -21.914
ltibia 15.3661
lfoot -5.39677 17.0485
ltoes -20.8139
